<?xml version="1.0" encoding="utf-8"?>
<!-- Generator: Adobe Illustrator 23.0.3, SVG Export Plug-In . SVG Version: 6.00 Build 0)  -->
<svg version="1.1" id="Layer_1" xmlns="http://www.w3.org/2000/svg" xmlns:xlink="http://www.w3.org/1999/xlink" x="0px" y="0px"
	 viewBox="0 0 148 148" style="enable-background:new 0 0 148 148;" xml:space="preserve">
<style type="text/css">
	.st0{fill:url(#SVGID_1_);}
	.st1{fill:url(#SVGID_2_);}
	.st2{fill:url(#SVGID_3_);}
	.st3{fill:url(#SVGID_4_);}
	.st4{fill:url(#SVGID_5_);}
	.st5{fill:url(#SVGID_6_);}
	.st6{fill:url(#SVGID_7_);}
	.st7{fill:url(#SVGID_8_);}
	.st8{fill:url(#SVGID_9_);}
	.st9{fill:url(#SVGID_10_);}
	.st10{fill:url(#SVGID_11_);}
	.st11{fill:url(#SVGID_12_);}
	.st12{fill:url(#SVGID_13_);}
	.st13{fill:url(#SVGID_14_);}
	.st14{fill:url(#SVGID_15_);}
	.st15{fill:url(#SVGID_16_);}
	.st16{fill:url(#SVGID_17_);}
	.st17{fill:url(#SVGID_18_);}
	.st18{fill:url(#SVGID_19_);}
	.st19{fill:url(#SVGID_20_);}
	.st20{fill:#010101;}
	.st21{fill:url(#SVGID_21_);}
	.st22{fill:url(#SVGID_22_);}
	.st23{fill:url(#SVGID_23_);}
	.st24{fill:url(#SVGID_24_);}
	.st25{fill:url(#SVGID_25_);}
	.st26{fill:url(#SVGID_26_);}
	.st27{fill:#FF462E;}
	.st28{fill:url(#SVGID_27_);}
	.st29{fill:url(#SVGID_28_);}
	.st30{fill:url(#SVGID_29_);}
	.st31{fill:url(#SVGID_30_);}
	.st32{fill:url(#SVGID_31_);}
	.st33{fill:url(#SVGID_32_);}
	.st34{fill:url(#SVGID_33_);}
	.st35{fill:url(#SVGID_34_);}
	.st36{fill:url(#SVGID_35_);}
	.st37{fill:url(#SVGID_36_);}
	.st38{fill:url(#SVGID_37_);}
	.st39{fill:url(#SVGID_38_);}
	.st40{fill:url(#SVGID_39_);}
	.st41{fill:#EFEFEF;}
	.st42{fill:#FFB70D;}
	.st43{fill:#FF3100;}
	.st44{fill:#FFCC01;}
	.st45{fill:#FF3600;}
	.st46{fill:#DF2A00;}
	.st47{fill:#FC3100;}
	.st48{fill:#DF2901;}
	.st49{fill:url(#SVGID_40_);}
	.st50{fill:url(#SVGID_41_);}
	.st51{fill:url(#SVGID_42_);}
	.st52{fill:url(#SVGID_43_);}
	.st53{fill:url(#SVGID_44_);}
	.st54{fill:url(#SVGID_45_);}
	.st55{fill:url(#SVGID_46_);}
	.st56{fill:url(#SVGID_47_);}
	.st57{fill:#F46F24;}
	.st58{fill:#EF2F3E;}
	.st59{fill:#28A54A;}
	.st60{fill:#27B0C3;}
	.st61{fill:#494C55;}
	.st62{fill:#71BD43;}
	.st63{fill:#F05924;}
	.st64{fill:url(#SVGID_48_);}
	.st65{fill:#F24C8A;}
	.st66{fill:#D9D9D9;}
	.st67{fill:#7DD2F0;}
	.st68{fill:#EEE25C;}
	.st69{fill:#464655;}
	.st70{fill:#61B9D9;}
	.st71{fill:#FF6B58;}
	.st72{fill:#FFCE6E;}
	.st73{fill:#F4432C;}
	.st74{fill:#6B6B82;}
	.st75{fill:#B9E578;}
</style>
<linearGradient id="SVGID_1_" gradientUnits="userSpaceOnUse" x1="19.9099" y1="24.0119" x2="112.9306" y2="134.8697">
	<stop  offset="0" style="stop-color:#FF7F18"/>
	<stop  offset="0.116" style="stop-color:#FF612D"/>
	<stop  offset="0.3498" style="stop-color:#FF2955"/>
	<stop  offset="0.4627" style="stop-color:#FF1364"/>
	<stop  offset="1" style="stop-color:#580DBF"/>
</linearGradient>
<path class="st0" d="M56.5,86.7c-3.1,4.9-6.2,9.9-8.4,15.2c-2,4.9-0.4,9.6,3.6,13c3.8,3.3,8.2,4.4,12.9,2.2
	c4.6-2.2,7.5-5.9,7.6-12.3c-1.1-6.6-5.6-12.7-9.8-18.7C60.8,83.9,57.9,84.5,56.5,86.7z M59.6,109.6c-2.5-0.1-4.1-1.6-3.8-4.2
	c0.4-2.8,2.2-7,3.8-6.8c2.6,0.4,3.5,4.3,4.3,6.9C63.6,108.3,62.1,109.7,59.6,109.6z M38.9,51.3c-0.1,4,1.9,5.8,5.8,5.8
	c5,0,10,0,15,0c5.2,0,10.3,0,15.5,0c3.6,0,5.6-1.7,5.6-5.5c0-4.7,0-9.3,0-14c0-4-1.9-5.7-5.8-5.6C64.8,32,54.6,32,44.5,32
	c-4.1,0-5.7,1.9-5.6,5.8C39,42.3,39,46.8,38.9,51.3z M47.1,43.6c0.1-2.5,0.7-3.5,3.3-3.4c6.3,0.2,12.6,0.2,18.9,0
	c3.7-0.2,2.9,2.2,2.9,4.2c0,2,0.8,4.5-2.9,4.2c-3.3-0.2-6.6-0.1-9.9-0.1c-2.5,0-5-0.3-7.5,0.1C47.7,49.2,47,47.3,47.1,43.6z
	 M136.4,43.1c-5.3,0-10.7,0-16,0c-9.8,0-14.6,4.9-14.7,14.7c0,12.5,0,25,0,37.5c0,3.7-1.1,6-5.3,6.1c-5,0.1-3-3.5-3-5.6
	c-0.1-22.2,0-44.3-0.1-66.5c0-9.2-5.1-14.1-14.3-14.1c-15.5,0-31,0-46.5,0c-8.9,0-14.1,5-14.4,13.7c-0.1,3.8,0,7.7,0,11.5
	c0,30,0,60-0.1,90c0,1.8,1.4,4.7-2.5,4.6c-3-0.1-5.6,0.7-5.5,4.2c0.1,3.8,3.1,4.1,6.1,4.1c13.2,0,26.3,0,39.5,0c13.5,0,27,0,40.5,0
	c2.8,0,5.2-0.8,5.4-3.9c0.2-3.1-1.9-4.6-4.8-4.4c-3.1,0.2-3.6-1.2-3.5-3.8c0.1-5.8,0.2-11.7,0-17.5c-0.1-3.2,1-3.8,4-3.9
	c8.3-0.5,12.7-5.6,12.8-14.1c0.1-8,0.1-16-0.1-24c-0.1-2.8,0.8-3.6,3.6-3.6c7.4-0.2,13.1-4.9,13-11.7c0-4.9,2-5.4,5.8-5.1
	c3,0.3,5.5-0.8,5.4-4.3C141.6,43.8,139.2,43.1,136.4,43.1z M30.6,29.1c0-3.8,1.7-5.6,5.4-5.6c15.8,0,31.6,0,47.4,0
	c3.9,0,5.6,1.9,5.6,5.9c-0.1,10.8-0.2,21.6,0,32.4c0,2.9-1,3.5-3.7,3.5c-8.6-0.2-17.3-0.1-26-0.1c-8.5,0-17-0.1-25.5,0.1
	c-2.6,0-3.4-0.7-3.4-3.3C30.8,51,30.7,40,30.6,29.1z M85.1,135c-16.8-0.2-33.6-0.2-50.4,0c-3.4,0-4.1-1-4.1-4.2
	c0.1-17.8,0.1-35.6,0-53.4c0-3.1,0.9-3.9,4-3.9c17,0.1,33.9,0.1,50.9,0c2.9,0,3.6,1,3.6,3.7c-0.1,9.1-0.1,18.3-0.1,27.4
	c0,8.8-0.1,17.6,0.1,26.5C89.1,134.2,88.2,135,85.1,135z M117,59.8c-2.4,0.1-3.1-0.8-3-3.2c0.2-3.7,2-5.4,5.9-5.4
	c2.2-0.4,2.7,0.9,2.7,3.1C122.4,58.1,120.6,59.7,117,59.8z"/>
</svg>
